<svg width="20" height="20" viewBox="0 0 20 20" fill="none" xmlns="http://www.w3.org/2000/svg">
<path d="M9.95823 1.66797C5.3849 1.66797 1.66406 5.4063 1.66406 10.0013C1.66406 14.5963 5.4024 18.3346 9.9974 18.3346C14.5924 18.3346 18.3307 14.5963 18.3307 10.0013C18.3307 5.4063 14.5749 1.66797 9.95823 1.66797ZM9.9974 16.668C6.32156 16.668 3.33073 13.6771 3.33073 10.0013C3.33073 6.32547 6.30323 3.33464 9.95823 3.33464C13.6566 3.33464 16.6641 6.32547 16.6641 10.0013C16.6641 13.6771 13.6732 16.668 9.9974 16.668Z" fill="#FF0606"/>
<path d="M9.16406 5.83203H10.8307V11.6654H9.16406V5.83203ZM9.16406 12.4987H10.8307V14.1654H9.16406V12.4987Z" fill="#FF0606"/>
</svg>
