<svg width="62" height="62" viewBox="0 0 62 62" fill="none" xmlns="http://www.w3.org/2000/svg">
<path d="M37.1665 24.8333V20.1466C37.1665 17.9575 34.9773 16.4775 32.9423 17.2791L21.7498 21.75V20.27C21.7498 18.05 19.499 16.5391 17.464 17.4333L3.89734 23.23C1.6465 24.2166 0.166504 26.4366 0.166504 28.9033V55.6666C0.166504 59.0583 2.9415 61.8333 6.33317 61.8333H55.6665C59.0582 61.8333 61.8332 59.0583 61.8332 55.6666V24.8333H37.1665ZM21.7498 46.4166C21.7498 48.1125 20.3623 49.5 18.6665 49.5C16.9707 49.5 15.5832 48.1125 15.5832 46.4166V40.25C15.5832 38.5541 16.9707 37.1666 18.6665 37.1666C20.3623 37.1666 21.7498 38.5541 21.7498 40.25V46.4166ZM34.0832 46.4166C34.0832 48.1125 32.6957 49.5 30.9998 49.5C29.304 49.5 27.9165 48.1125 27.9165 46.4166V40.25C27.9165 38.5541 29.304 37.1666 30.9998 37.1666C32.6957 37.1666 34.0832 38.5541 34.0832 40.25V46.4166ZM46.4165 46.4166C46.4165 48.1125 45.029 49.5 43.3332 49.5C41.6373 49.5 40.2498 48.1125 40.2498 46.4166V40.25C40.2498 38.5541 41.6373 37.1666 43.3332 37.1666C45.029 37.1666 46.4165 38.5541 46.4165 40.25V46.4166ZM56.0365 0.166626H52.244C50.6715 0.166626 49.3765 1.33829 49.1915 2.87996L47.0332 20.2083H61.2165L59.089 2.87996C58.904 1.33829 57.5782 0.166626 56.0365 0.166626V0.166626Z" fill="#f9fafb"/>
</svg>
