<svg width="62" height="62" viewBox="0 0 62 62" fill="none" xmlns="http://www.w3.org/2000/svg">
<path d="M14.0829 15.2048L18.3048 8.20762L21.3457 3.15905C22.4971 1.24 25.2724 1.24 26.4238 3.15905L30.7933 10.4219L27.1619 16.5038L24.2095 21.2867L14.0829 15.2048V15.2048ZM61.1733 32.3876L56.4495 24.5343L46.2343 30.439L52.759 41.3333H56.0952C57.6613 41.3333 59.1632 40.7112 60.2705 39.6039C61.3779 38.4965 62 36.9946 62 35.4286C62 34.3657 61.7048 33.3324 61.1733 32.3876ZM44.2857 56.0952H48.7143C49.8128 56.0947 50.8894 55.7876 51.823 55.2087C52.7566 54.6298 53.5102 53.8019 53.999 52.8181L58.28 44.2857H44.2857V38.381L32.4762 50.1905L44.2857 62V56.0952ZM26.5714 44.2857H13.8762L11.3962 48.4486C10.5105 49.9248 10.4514 51.7552 11.219 53.32C12.0457 55.0029 13.7876 56.0952 15.7067 56.0952H26.5714V44.2857ZM15.1162 36.4619L20.2238 39.5324L16.179 23.3238L0 27.3686L5.01905 30.38L3.80857 32.4171C2.77524 34.159 2.68667 36.2848 3.6019 38.0857L8.41429 47.7105L15.1162 36.4619V36.4619ZM47.2971 9.27048L43.459 2.86381C42.3667 1.09238 40.4476 0 38.381 0H27.959L37.1705 15.3524L32.0924 18.3933L48.301 22.4381L52.3457 6.22952L47.2971 9.27048V9.27048Z" fill="#f9fafb"/>
</svg>
