<svg width="1121" height="1061" viewBox="0 0 1121 1061" fill="none" xmlns="http://www.w3.org/2000/svg">
<g opacity="0.3" filter="url(#filter0_ii_313_148)">
<path d="M685.629 1009.11C722.82 1006.79 762.23 1000.76 786.319 993.789C870.527 969.378 907.401 926.261 910.782 848.166C911.627 830.518 910.254 811.285 905.922 780.427C900.745 742.806 899.266 721.67 899.9 689.544C900.217 666.612 900.851 658.581 902.647 648.436C905.605 631.633 910.888 616.416 919.235 600.353C931.808 575.941 944.909 559.561 984.002 519.51C1015.06 487.595 1028.59 472.377 1038.84 457.688C1058.28 429.79 1068.95 401.574 1068.95 377.796C1068.95 347.15 1051.94 321.893 1013.69 295.685C999.322 285.751 981.783 276.135 953.467 262.291C893.772 233.335 875.071 223.719 863.131 215.899C838.936 199.941 833.125 192.755 812.733 152.809C796.674 121.635 788.433 108.742 777.867 98.8082C764.871 86.444 749.657 80.7374 726.307 79.575C703.485 78.4125 687.531 82.1112 641.465 98.7026C601.739 113.075 583.354 117.09 563.068 115.822C545.001 114.765 529.153 110.221 472.733 90.354C379.755 57.4884 345.84 48.6115 314.249 48.6115C288.152 48.6115 274.733 55.0578 265.858 71.6492C258.462 85.5986 257.089 101.556 260.258 137.909C264.379 185.464 262.794 200.047 251.278 216.85C241.346 231.539 221.905 247.179 190.631 265.778C141.078 295.262 119.842 318.723 119.842 343.874C119.947 357.084 123.751 369.553 138.648 404.216C155.765 444.162 160.625 464.769 157.878 484.847C155.976 499.008 143.403 540.645 130.724 574.884C110.333 629.942 86.8769 676.652 63.527 708.883C38.0639 743.968 34.0489 752.528 30.8793 779.898C28.8718 797.124 32.3585 810.862 45.9881 838.549C63.3157 873.951 79.4811 888.957 107.163 895.298C115.932 897.306 120.159 897.623 139.916 897.623C158.723 897.517 167.281 896.989 189.575 894.241C257.723 885.893 291.744 886.844 341.191 898.785C386.306 909.564 406.803 919.181 469.035 958.599C490.06 971.808 520.912 987.977 535.598 993.261C573.528 1007.1 627.413 1012.81 685.629 1009.11Z" fill="#F9FAFB"/>
</g>
<g opacity="0.3" filter="url(#filter1_ii_313_148)">
<path d="M660.839 942.62C692.807 940.621 726.683 935.443 747.389 929.447C819.772 908.461 851.467 871.396 854.374 804.259C855.1 789.087 853.919 772.553 850.196 746.026C845.746 713.684 844.474 695.514 845.019 667.897C845.292 648.183 845.837 641.278 847.381 632.557C849.923 618.112 854.464 605.03 861.639 591.221C872.446 570.235 883.708 556.154 917.311 521.723C944.012 494.286 955.636 481.204 964.446 468.577C981.156 444.593 990.329 420.336 990.329 399.896C990.329 373.55 975.707 351.837 942.831 329.307C930.48 320.767 915.404 312.5 891.064 300.599C839.752 275.707 823.677 267.44 813.414 260.717C792.617 246.999 787.622 240.821 770.094 206.481C756.289 179.681 749.206 168.597 740.124 160.058C728.953 149.428 715.875 144.523 695.804 143.523C676.187 142.524 662.474 145.704 622.877 159.967C588.729 172.322 572.927 175.774 555.489 174.684C539.959 173.776 526.337 169.869 477.839 152.79C397.919 124.536 368.766 116.905 341.611 116.905C319.179 116.905 307.645 122.447 300.016 136.71C293.659 148.702 292.479 162.42 295.203 193.671C298.745 234.553 297.383 247.09 287.484 261.535C278.947 274.162 262.236 287.608 235.354 303.597C192.76 328.944 174.505 349.112 174.505 370.734C174.596 382.09 177.865 392.81 190.671 422.608C205.383 456.948 209.561 474.663 207.2 491.924C205.565 504.098 194.758 539.892 183.859 569.327C166.331 616.658 146.17 656.813 126.099 684.522C104.211 714.683 100.76 722.042 98.0357 745.571C96.3102 760.38 99.3072 772.19 111.023 795.992C125.917 826.426 139.812 839.326 163.607 844.777C171.145 846.503 174.777 846.776 191.761 846.776C207.926 846.685 215.283 846.231 234.445 843.869C293.023 836.692 322.267 837.509 364.77 847.775C403.55 857.042 421.169 865.309 474.661 899.195C492.734 910.551 519.253 924.451 531.876 928.993C564.48 940.894 610.798 945.8 660.839 942.62Z" fill="#F9FAFB"/>
</g>
<g opacity="0.3" filter="url(#filter2_ii_313_148)">
<path d="M637.915 873.637C664.731 871.963 693.146 867.626 710.516 862.603C771.233 845.025 797.82 813.978 800.258 757.743C800.868 745.035 799.877 731.186 796.754 708.966C793.021 681.876 791.954 666.657 792.412 643.524C792.64 627.011 793.097 621.228 794.392 613.923C796.525 601.824 800.334 590.866 806.353 579.299C815.419 561.721 824.865 549.926 853.052 521.086C875.45 498.105 885.201 487.147 892.591 476.57C906.608 456.481 914.303 436.163 914.303 419.042C914.303 396.974 902.037 378.787 874.46 359.916C864.099 352.763 851.453 345.838 831.036 335.869C787.993 315.019 774.509 308.094 765.9 302.463C748.455 290.973 744.265 285.798 729.561 257.034C717.982 234.586 712.04 225.302 704.421 218.149C695.051 209.246 684.081 205.137 667.245 204.3C650.789 203.463 639.286 206.126 606.07 218.073C577.426 228.422 564.17 231.314 549.543 230.401C536.516 229.64 525.089 226.368 484.408 212.062C417.368 188.396 392.913 182.004 370.135 182.004C351.318 182.004 341.643 186.646 335.243 198.593C329.911 208.637 328.92 220.128 331.206 246.305C334.177 280.548 333.034 291.049 324.73 303.148C317.569 313.725 303.552 324.988 281.002 338.38C245.273 359.611 229.96 376.504 229.96 394.615C230.036 404.127 232.779 413.106 243.52 438.066C255.862 466.83 259.366 481.669 257.386 496.127C256.014 506.324 246.949 536.305 237.807 560.96C223.104 600.606 206.191 634.24 189.355 657.449C170.995 682.713 168.1 688.877 165.815 708.586C164.367 720.989 166.881 730.882 176.709 750.819C189.203 776.311 200.859 787.116 220.818 791.682C227.141 793.128 230.189 793.356 244.435 793.356C257.995 793.28 264.166 792.9 280.24 790.921C329.377 784.91 353.908 785.594 389.561 794.193C422.091 801.955 436.87 808.88 481.741 837.263C496.902 846.775 519.147 858.418 529.736 862.223C557.085 872.191 595.938 876.3 637.915 873.637Z" fill="#F9FAFB"/>
</g>
<g opacity="0.3" filter="url(#filter3_ii_313_148)">
<path d="M619.458 808.657C640.496 807.343 662.79 803.936 676.417 799.992C724.052 786.187 744.911 761.805 746.824 717.641C747.302 707.661 746.525 696.785 744.074 679.335C741.146 658.06 740.309 646.108 740.667 627.94C740.847 614.972 741.205 610.43 742.221 604.693C743.895 595.191 746.883 586.586 751.605 577.502C758.717 563.697 766.129 554.434 788.243 531.785C805.815 513.737 813.465 505.131 819.262 496.825C830.26 481.048 836.296 465.092 836.296 451.645C836.296 434.315 826.674 420.032 805.038 405.211C796.909 399.594 786.988 394.155 770.97 386.327C737.201 369.952 726.622 364.514 719.868 360.092C706.181 351.068 702.894 347.004 691.359 324.414C682.274 306.785 677.612 299.494 671.635 293.877C664.284 286.884 655.677 283.657 642.469 283C629.559 282.343 620.534 284.434 594.475 293.817C572.002 301.944 561.602 304.215 550.127 303.498C539.907 302.9 530.941 300.331 499.025 289.096C446.429 270.51 427.244 265.49 409.373 265.49C394.61 265.49 387.02 269.135 381.999 278.518C377.816 286.406 377.039 295.43 378.832 315.988C381.163 342.88 380.266 351.127 373.751 360.629C368.133 368.936 357.136 377.781 339.444 388.299C311.413 404.972 299.4 418.239 299.4 432.462C299.46 439.932 301.611 446.984 310.039 466.586C319.721 489.175 322.47 500.829 320.916 512.183C319.841 520.191 312.728 543.737 305.556 563.1C294.021 594.235 280.752 620.649 267.543 638.877C253.139 658.717 250.868 663.558 249.075 679.036C247.939 688.777 249.912 696.546 257.622 712.203C267.424 732.223 276.568 740.709 292.228 744.295C297.188 745.43 299.579 745.61 310.756 745.61C321.394 745.55 326.236 745.251 338.847 743.697C377.397 738.976 396.642 739.514 424.614 746.267C450.135 752.363 461.73 757.801 496.933 780.092C508.827 787.562 526.279 796.705 534.587 799.693C556.044 807.522 586.526 810.749 619.458 808.657Z" fill="#F9FAFB"/>
</g>
<g opacity="0.3" filter="url(#filter4_ii_313_148)">
<path d="M603.457 748.308C619.534 747.292 636.57 744.657 646.984 741.607C683.386 730.931 699.326 712.076 700.787 677.923C701.153 670.205 700.559 661.794 698.686 648.299C696.448 631.846 695.809 622.603 696.083 608.554C696.22 598.525 696.494 595.013 697.271 590.576C698.549 583.228 700.833 576.573 704.441 569.548C709.876 558.873 715.54 551.709 732.439 534.194C745.867 520.237 751.713 513.582 756.144 507.158C764.548 494.957 769.161 482.618 769.161 472.219C769.161 458.817 761.807 447.771 745.273 436.31C739.062 431.966 731.48 427.76 719.239 421.706C693.434 409.043 685.35 404.837 680.189 401.418C669.729 394.439 667.217 391.296 658.402 373.827C651.46 360.194 647.897 354.555 643.33 350.211C637.712 344.804 631.135 342.308 621.041 341.8C611.176 341.292 604.279 342.909 584.366 350.165C567.192 356.45 559.245 358.206 550.476 357.652C542.666 357.19 535.815 355.202 511.425 346.514C471.232 332.141 456.571 328.259 442.915 328.259C431.633 328.259 425.833 331.078 421.996 338.334C418.799 344.434 418.205 351.413 419.576 367.311C421.357 388.108 420.672 394.485 415.693 401.833C411.4 408.257 402.996 415.097 389.477 423.231C368.056 436.125 358.875 446.385 358.875 457.384C358.921 463.161 360.565 468.614 367.005 483.773C374.404 501.242 376.505 510.254 375.318 519.035C374.496 525.228 369.061 543.437 363.58 558.41C354.765 582.488 344.625 602.916 334.532 617.011C323.524 632.355 321.789 636.098 320.418 648.068C319.551 655.601 321.058 661.609 326.95 673.717C334.44 689.199 341.428 695.762 353.395 698.535C357.186 699.413 359.013 699.551 367.553 699.551C375.683 699.505 379.383 699.274 389.02 698.073C418.479 694.422 433.186 694.837 454.561 700.06C474.064 704.774 482.925 708.979 509.826 726.218C518.915 731.994 532.252 739.065 538.601 741.376C554.998 747.43 578.291 749.926 603.457 748.308Z" fill="#F9FAFB"/>
</g>
<g opacity="0.3" filter="url(#filter5_ii_313_148)">
<path d="M595.051 688.959C606.543 688.241 618.722 686.378 626.166 684.222C652.187 676.676 663.582 663.347 664.627 639.204C664.888 633.748 664.464 627.802 663.125 618.263C661.525 606.633 661.068 600.099 661.264 590.167C661.362 583.078 661.558 580.595 662.113 577.459C663.027 572.265 664.659 567.56 667.239 562.594C671.124 555.048 675.173 549.984 687.253 537.602C696.852 527.736 701.031 523.032 704.198 518.491C710.205 509.866 713.503 501.143 713.503 493.793C713.503 484.319 708.246 476.511 696.427 468.409C691.987 465.338 686.567 462.365 677.817 458.085C659.37 449.134 653.591 446.161 649.902 443.743C642.425 438.81 640.629 436.589 634.328 424.24C629.365 414.602 626.819 410.617 623.554 407.546C619.538 403.724 614.836 401.959 607.621 401.6C600.569 401.241 595.639 402.384 581.403 407.513C569.127 411.956 563.446 413.198 557.178 412.806C551.594 412.479 546.697 411.074 529.262 404.932C500.531 394.772 490.05 392.028 480.288 392.028C472.224 392.028 468.077 394.021 465.335 399.15C463.049 403.462 462.625 408.395 463.604 419.633C464.878 434.335 464.388 438.843 460.829 444.037C457.76 448.578 451.753 453.414 442.088 459.163C426.776 468.278 420.213 475.531 420.213 483.306C420.246 487.39 421.421 491.245 426.025 501.96C431.314 514.309 432.816 520.68 431.967 526.887C431.379 531.265 427.494 544.136 423.576 554.721C417.275 571.742 410.027 586.182 402.811 596.146C394.943 606.992 393.702 609.638 392.722 618.1C392.102 623.425 393.179 627.672 397.391 636.231C402.746 647.175 407.741 651.814 416.295 653.774C419.005 654.395 420.311 654.493 426.417 654.493C432.228 654.461 434.873 654.297 441.762 653.448C462.821 650.867 473.334 651.161 488.614 654.853C502.555 658.185 508.889 661.158 528.12 673.343C534.617 677.427 544.15 682.425 548.689 684.059C560.41 688.339 577.061 690.103 595.051 688.959Z" fill="#F9FAFB"/>
</g>
<g opacity="0.3" filter="url(#filter6_ii_313_148)">
<path d="M584.76 649.312C593.112 648.788 601.963 647.431 607.373 645.86C626.285 640.361 634.566 630.649 635.326 613.057C635.515 609.082 635.207 604.749 634.234 597.798C633.071 589.324 632.739 584.563 632.882 577.326C632.953 572.161 633.095 570.351 633.499 568.066C634.163 564.281 635.349 560.853 637.224 557.235C640.048 551.736 642.99 548.046 651.77 539.024C658.746 531.835 661.783 528.407 664.085 525.099C668.451 518.814 670.848 512.458 670.848 507.102C670.848 500.199 667.027 494.509 658.437 488.606C655.21 486.368 651.271 484.202 644.912 481.083C631.505 474.561 627.305 472.395 624.624 470.633C619.19 467.039 617.885 465.42 613.305 456.422C609.699 449.399 607.848 446.495 605.475 444.257C602.556 441.472 599.139 440.187 593.895 439.925C588.77 439.663 585.187 440.496 574.841 444.234C565.919 447.471 561.79 448.376 557.234 448.09C553.176 447.852 549.617 446.828 536.946 442.353C516.065 434.95 508.448 432.95 501.353 432.95C495.492 432.95 492.478 434.402 490.485 438.14C488.824 441.282 488.515 444.876 489.227 453.065C490.153 463.777 489.797 467.062 487.21 470.847C484.98 474.156 480.614 477.679 473.59 481.869C462.461 488.511 457.692 493.795 457.692 499.461C457.715 502.436 458.57 505.245 461.915 513.053C465.76 522.051 466.851 526.693 466.234 531.216C465.807 534.406 462.983 543.785 460.136 551.498C455.556 563.9 450.288 574.422 445.044 581.682C439.326 589.586 438.424 591.514 437.712 597.679C437.261 601.559 438.044 604.654 441.105 610.891C444.997 618.866 448.627 622.246 454.844 623.674C456.814 624.126 457.763 624.198 462.2 624.198C466.424 624.174 468.346 624.055 473.353 623.436C488.658 621.555 496.298 621.77 507.404 624.46C517.536 626.888 522.139 629.054 536.115 637.933C540.837 640.909 547.766 644.551 551.065 645.741C559.583 648.86 571.685 650.145 584.76 649.312Z" fill="#F9FAFB"/>
</g>
<defs>
<filter id="filter0_ii_313_148" x="25.3545" y="43.6115" width="1048.59" height="971.602" filterUnits="userSpaceOnUse" color-interpolation-filters="sRGB">
<feFlood flood-opacity="0" result="BackgroundImageFix"/>
<feBlend mode="normal" in="SourceGraphic" in2="BackgroundImageFix" result="shape"/>
<feColorMatrix in="SourceAlpha" type="matrix" values="0 0 0 0 0 0 0 0 0 0 0 0 0 0 0 0 0 0 127 0" result="hardAlpha"/>
<feOffset dx="-5" dy="-5"/>
<feGaussianBlur stdDeviation="2.5"/>
<feComposite in2="hardAlpha" operator="arithmetic" k2="-1" k3="1"/>
<feColorMatrix type="matrix" values="0 0 0 0 0 0 0 0 0 0.45098 0 0 0 0 0.854902 0 0 0 0.25 0"/>
<feBlend mode="normal" in2="shape" result="effect1_innerShadow_313_148"/>
<feColorMatrix in="SourceAlpha" type="matrix" values="0 0 0 0 0 0 0 0 0 0 0 0 0 0 0 0 0 0 127 0" result="hardAlpha"/>
<feOffset dx="5" dy="5"/>
<feGaussianBlur stdDeviation="2.5"/>
<feComposite in2="hardAlpha" operator="arithmetic" k2="-1" k3="1"/>
<feColorMatrix type="matrix" values="0 0 0 0 0 0 0 0 0 0.529412 0 0 0 0 1 0 0 0 0.25 0"/>
<feBlend mode="normal" in2="effect1_innerShadow_313_148" result="effect2_innerShadow_313_148"/>
</filter>
<filter id="filter1_ii_313_148" x="92.585" y="111.905" width="902.744" height="836.661" filterUnits="userSpaceOnUse" color-interpolation-filters="sRGB">
<feFlood flood-opacity="0" result="BackgroundImageFix"/>
<feBlend mode="normal" in="SourceGraphic" in2="BackgroundImageFix" result="shape"/>
<feColorMatrix in="SourceAlpha" type="matrix" values="0 0 0 0 0 0 0 0 0 0 0 0 0 0 0 0 0 0 127 0" result="hardAlpha"/>
<feOffset dx="-5" dy="-5"/>
<feGaussianBlur stdDeviation="2.5"/>
<feComposite in2="hardAlpha" operator="arithmetic" k2="-1" k3="1"/>
<feColorMatrix type="matrix" values="0 0 0 0 0 0 0 0 0 0.45098 0 0 0 0 0.854902 0 0 0 0.25 0"/>
<feBlend mode="normal" in2="shape" result="effect1_innerShadow_313_148"/>
<feColorMatrix in="SourceAlpha" type="matrix" values="0 0 0 0 0 0 0 0 0 0 0 0 0 0 0 0 0 0 127 0" result="hardAlpha"/>
<feOffset dx="5" dy="5"/>
<feGaussianBlur stdDeviation="2.5"/>
<feComposite in2="hardAlpha" operator="arithmetic" k2="-1" k3="1"/>
<feColorMatrix type="matrix" values="0 0 0 0 0 0 0 0 0 0.529412 0 0 0 0 1 0 0 0 0.25 0"/>
<feBlend mode="normal" in2="effect1_innerShadow_313_148" result="effect2_innerShadow_313_148"/>
</filter>
<filter id="filter2_ii_313_148" x="160.437" y="177.004" width="758.866" height="702.426" filterUnits="userSpaceOnUse" color-interpolation-filters="sRGB">
<feFlood flood-opacity="0" result="BackgroundImageFix"/>
<feBlend mode="normal" in="SourceGraphic" in2="BackgroundImageFix" result="shape"/>
<feColorMatrix in="SourceAlpha" type="matrix" values="0 0 0 0 0 0 0 0 0 0 0 0 0 0 0 0 0 0 127 0" result="hardAlpha"/>
<feOffset dx="-5" dy="-5"/>
<feGaussianBlur stdDeviation="2.5"/>
<feComposite in2="hardAlpha" operator="arithmetic" k2="-1" k3="1"/>
<feColorMatrix type="matrix" values="0 0 0 0 0 0 0 0 0 0.45098 0 0 0 0 0.854902 0 0 0 0.25 0"/>
<feBlend mode="normal" in2="shape" result="effect1_innerShadow_313_148"/>
<feColorMatrix in="SourceAlpha" type="matrix" values="0 0 0 0 0 0 0 0 0 0 0 0 0 0 0 0 0 0 127 0" result="hardAlpha"/>
<feOffset dx="5" dy="5"/>
<feGaussianBlur stdDeviation="2.5"/>
<feComposite in2="hardAlpha" operator="arithmetic" k2="-1" k3="1"/>
<feColorMatrix type="matrix" values="0 0 0 0 0 0 0 0 0 0.529412 0 0 0 0 1 0 0 0 0.25 0"/>
<feBlend mode="normal" in2="effect1_innerShadow_313_148" result="effect2_innerShadow_313_148"/>
</filter>
<filter id="filter3_ii_313_148" x="243.778" y="260.49" width="597.518" height="553.79" filterUnits="userSpaceOnUse" color-interpolation-filters="sRGB">
<feFlood flood-opacity="0" result="BackgroundImageFix"/>
<feBlend mode="normal" in="SourceGraphic" in2="BackgroundImageFix" result="shape"/>
<feColorMatrix in="SourceAlpha" type="matrix" values="0 0 0 0 0 0 0 0 0 0 0 0 0 0 0 0 0 0 127 0" result="hardAlpha"/>
<feOffset dx="-5" dy="-5"/>
<feGaussianBlur stdDeviation="2.5"/>
<feComposite in2="hardAlpha" operator="arithmetic" k2="-1" k3="1"/>
<feColorMatrix type="matrix" values="0 0 0 0 0 0 0 0 0 0.45098 0 0 0 0 0.854902 0 0 0 0.25 0"/>
<feBlend mode="normal" in2="shape" result="effect1_innerShadow_313_148"/>
<feColorMatrix in="SourceAlpha" type="matrix" values="0 0 0 0 0 0 0 0 0 0 0 0 0 0 0 0 0 0 127 0" result="hardAlpha"/>
<feOffset dx="5" dy="5"/>
<feGaussianBlur stdDeviation="2.5"/>
<feComposite in2="hardAlpha" operator="arithmetic" k2="-1" k3="1"/>
<feColorMatrix type="matrix" values="0 0 0 0 0 0 0 0 0 0.529412 0 0 0 0 1 0 0 0 0.25 0"/>
<feBlend mode="normal" in2="effect1_innerShadow_313_148" result="effect2_innerShadow_313_148"/>
</filter>
<filter id="filter4_ii_313_148" x="315.191" y="323.259" width="458.969" height="430.531" filterUnits="userSpaceOnUse" color-interpolation-filters="sRGB">
<feFlood flood-opacity="0" result="BackgroundImageFix"/>
<feBlend mode="normal" in="SourceGraphic" in2="BackgroundImageFix" result="shape"/>
<feColorMatrix in="SourceAlpha" type="matrix" values="0 0 0 0 0 0 0 0 0 0 0 0 0 0 0 0 0 0 127 0" result="hardAlpha"/>
<feOffset dx="-5" dy="-5"/>
<feGaussianBlur stdDeviation="2.5"/>
<feComposite in2="hardAlpha" operator="arithmetic" k2="-1" k3="1"/>
<feColorMatrix type="matrix" values="0 0 0 0 0 0 0 0 0 0.45098 0 0 0 0 0.854902 0 0 0 0.25 0"/>
<feBlend mode="normal" in2="shape" result="effect1_innerShadow_313_148"/>
<feColorMatrix in="SourceAlpha" type="matrix" values="0 0 0 0 0 0 0 0 0 0 0 0 0 0 0 0 0 0 127 0" result="hardAlpha"/>
<feOffset dx="5" dy="5"/>
<feGaussianBlur stdDeviation="2.5"/>
<feComposite in2="hardAlpha" operator="arithmetic" k2="-1" k3="1"/>
<feColorMatrix type="matrix" values="0 0 0 0 0 0 0 0 0 0.529412 0 0 0 0 1 0 0 0 0.25 0"/>
<feBlend mode="normal" in2="effect1_innerShadow_313_148" result="effect2_innerShadow_313_148"/>
</filter>
<filter id="filter5_ii_313_148" x="387.56" y="387.028" width="330.943" height="307.272" filterUnits="userSpaceOnUse" color-interpolation-filters="sRGB">
<feFlood flood-opacity="0" result="BackgroundImageFix"/>
<feBlend mode="normal" in="SourceGraphic" in2="BackgroundImageFix" result="shape"/>
<feColorMatrix in="SourceAlpha" type="matrix" values="0 0 0 0 0 0 0 0 0 0 0 0 0 0 0 0 0 0 127 0" result="hardAlpha"/>
<feOffset dx="-5" dy="-5"/>
<feGaussianBlur stdDeviation="2.5"/>
<feComposite in2="hardAlpha" operator="arithmetic" k2="-1" k3="1"/>
<feColorMatrix type="matrix" values="0 0 0 0 0 0 0 0 0 0.45098 0 0 0 0 0.854902 0 0 0 0.25 0"/>
<feBlend mode="normal" in2="shape" result="effect1_innerShadow_313_148"/>
<feColorMatrix in="SourceAlpha" type="matrix" values="0 0 0 0 0 0 0 0 0 0 0 0 0 0 0 0 0 0 127 0" result="hardAlpha"/>
<feOffset dx="5" dy="5"/>
<feGaussianBlur stdDeviation="2.5"/>
<feComposite in2="hardAlpha" operator="arithmetic" k2="-1" k3="1"/>
<feColorMatrix type="matrix" values="0 0 0 0 0 0 0 0 0 0.529412 0 0 0 0 1 0 0 0 0.25 0"/>
<feBlend mode="normal" in2="effect1_innerShadow_313_148" result="effect2_innerShadow_313_148"/>
</filter>
<filter id="filter6_ii_313_148" x="432.594" y="427.95" width="243.253" height="226.61" filterUnits="userSpaceOnUse" color-interpolation-filters="sRGB">
<feFlood flood-opacity="0" result="BackgroundImageFix"/>
<feBlend mode="normal" in="SourceGraphic" in2="BackgroundImageFix" result="shape"/>
<feColorMatrix in="SourceAlpha" type="matrix" values="0 0 0 0 0 0 0 0 0 0 0 0 0 0 0 0 0 0 127 0" result="hardAlpha"/>
<feOffset dx="-5" dy="-5"/>
<feGaussianBlur stdDeviation="2.5"/>
<feComposite in2="hardAlpha" operator="arithmetic" k2="-1" k3="1"/>
<feColorMatrix type="matrix" values="0 0 0 0 0 0 0 0 0 0.45098 0 0 0 0 0.854902 0 0 0 0.25 0"/>
<feBlend mode="normal" in2="shape" result="effect1_innerShadow_313_148"/>
<feColorMatrix in="SourceAlpha" type="matrix" values="0 0 0 0 0 0 0 0 0 0 0 0 0 0 0 0 0 0 127 0" result="hardAlpha"/>
<feOffset dx="5" dy="5"/>
<feGaussianBlur stdDeviation="2.5"/>
<feComposite in2="hardAlpha" operator="arithmetic" k2="-1" k3="1"/>
<feColorMatrix type="matrix" values="0 0 0 0 0 0 0 0 0 0.529412 0 0 0 0 1 0 0 0 0.25 0"/>
<feBlend mode="normal" in2="effect1_innerShadow_313_148" result="effect2_innerShadow_313_148"/>
</filter>
</defs>
</svg>
