<svg xmlns="http://www.w3.org/2000/svg" width="1185" height="1061" fill="none"><g filter="url(#a)" opacity=".3"><path fill="#EFF8FF" d="M750.226 1009.11c37.191-2.32 76.601-8.35 100.69-15.321 84.208-24.411 121.082-67.528 124.463-145.623.845-17.648-.528-36.882-4.86-67.739-5.177-37.622-6.657-58.757-6.023-90.883.317-22.932.951-30.963 2.747-41.108 2.959-16.803 8.242-32.021 16.588-48.083 12.573-24.412 25.679-40.792 64.769-80.844 31.06-31.914 44.59-47.132 54.83-61.821 19.44-27.899 30.12-56.115 30.12-79.892 0-30.646-17.01-55.903-55.26-82.111-14.37-9.934-31.91-19.55-60.23-33.394-59.692-28.956-78.393-38.572-90.332-46.393-24.195-15.957-30.006-23.143-50.398-63.089-16.06-31.175-24.301-44.067-34.866-54.001-12.996-12.3642-28.21-18.0708-51.56-19.2332-22.822-1.1625-38.776 2.5362-84.842 19.1276-39.727 14.3716-58.111 18.3876-78.397 17.1196-18.067-1.057-33.915-5.601-90.336-25.4681-92.977-32.8657-126.893-41.7426-158.484-41.7426-26.097 0-39.515 6.4463-48.39 23.0377-7.396 13.9494-8.77 29.907-5.6 66.26 4.121 47.554 2.536 62.138-8.981 78.941-9.931 14.689-29.372 30.329-60.646 48.928-49.553 29.484-70.79 52.944-70.79 78.096.106 13.209 3.91 25.679 18.807 60.341 17.116 39.946 21.977 60.554 19.229 80.632-1.901 14.161-14.474 55.798-27.153 90.037-20.392 55.058-43.847 101.768-67.197 133.999-25.463 35.085-29.4784 43.645-32.6481 71.015-2.0074 17.226 1.4792 30.964 15.1091 58.651 17.327 35.402 33.493 50.408 61.175 56.749 8.769 2.008 12.995 2.325 32.753 2.325 18.807-.106 27.365-.634 49.658-3.382 68.148-8.348 102.17-7.397 151.617 4.544 45.115 10.779 65.612 20.396 127.843 59.814 21.026 13.209 51.877 29.378 66.564 34.662 37.93 13.839 91.815 19.549 150.031 15.849Z"/></g><g filter="url(#b)" opacity=".3"><path fill="#EFF8FF" d="M725.436 942.62c31.968-1.999 65.843-7.177 86.55-13.173 72.382-20.986 104.078-58.052 106.984-125.188.727-15.172-.454-31.706-4.177-58.234-4.451-32.341-5.722-50.511-5.177-78.129.272-19.714.817-26.618 2.361-35.339 2.543-14.445 7.084-27.527 14.259-41.336 10.807-20.986 22.069-35.067 55.672-69.499 26.702-27.436 38.322-40.518 47.132-53.146 16.71-23.983 25.89-48.24 25.89-68.68 0-26.346-14.63-48.059-47.5-70.589-12.354-8.54-27.43-16.807-51.769-28.708-51.313-24.892-67.387-33.159-77.65-39.882-20.797-13.718-25.792-19.896-43.32-54.236-13.805-26.8-20.889-37.884-29.971-46.424-11.17-10.629-24.248-15.535-44.319-16.534-19.617-.999-33.331 2.181-72.928 16.444-34.147 12.355-49.95 15.807-67.387 14.717-15.53-.909-29.153-4.815-77.65-21.894-79.92-28.254-109.073-35.885-136.228-35.885-22.432 0-33.966 5.541-41.595 19.805-6.357 11.991-7.538 25.71-4.813 56.961 3.542 40.882 2.179 53.419-7.72 67.863-8.537 12.628-25.247 26.074-52.13 42.063-42.594 25.346-60.848 45.515-60.848 67.136.091 11.356 3.36 22.076 16.165 51.874 14.713 34.341 18.891 52.056 16.529 69.317-1.634 12.174-12.442 47.968-23.34 77.403-17.528 47.331-37.69 87.486-57.761 115.194-21.887 30.162-25.338 37.521-28.063 61.05-1.725 14.808 1.272 26.619 12.987 50.421 14.895 30.434 28.79 43.334 52.585 48.785 7.537 1.726 11.17 1.999 28.153 1.999 16.166-.091 23.522-.546 42.685-2.908 58.578-7.177 87.822-6.359 130.325 3.907 38.779 9.266 56.398 17.533 109.89 51.42 18.073 11.356 44.592 25.255 57.216 29.798 32.604 11.901 78.922 16.807 128.963 13.627Z"/></g><g filter="url(#c)" opacity=".3"><path fill="#EFF8FF" d="M702.511 873.637c26.816-1.674 55.232-6.012 72.602-11.034 60.717-17.578 87.304-48.625 89.742-104.86.609-12.708-.381-26.557-3.504-48.777-3.733-27.09-4.8-42.309-4.343-65.442.229-16.513.686-22.296 1.981-29.601 2.133-12.1 5.942-23.057 11.961-34.624 9.065-17.578 18.512-29.373 46.699-58.213 22.398-22.981 32.149-33.939 39.539-44.516 14.017-20.089 21.711-40.407 21.711-57.528 0-22.068-12.265-40.255-39.843-59.127-10.361-7.153-23.007-14.077-43.423-24.046-43.043-20.85-56.528-27.775-65.136-33.406-17.446-11.49-21.636-16.665-36.339-45.429-11.58-22.448-17.522-31.732-25.14-38.885-9.37-8.903-20.341-13.012-37.177-13.849-16.455-.837-27.959 1.826-61.174 13.773-28.644 10.349-41.9 13.241-56.527 12.328-13.027-.761-24.454-4.033-65.136-18.339-67.04-23.666-91.494-30.058-114.272-30.058-18.817 0-28.493 4.642-34.892 16.589-5.333 10.044-6.323 21.535-4.037 47.712 2.971 34.243 1.828 44.744-6.476 56.843-7.161 10.577-21.179 21.84-43.728 35.232-35.73 21.231-51.042 38.124-51.042 56.235.076 9.512 2.818 18.491 13.56 43.451 12.342 28.764 15.846 43.602 13.865 58.061-1.371 10.196-10.437 40.178-19.579 64.833-14.703 39.646-31.615 73.28-48.451 96.489-18.36 25.264-21.255 31.428-23.541 51.137-1.447 12.403 1.067 22.296 10.894 42.233 12.494 25.492 24.15 36.297 44.11 40.863 6.323 1.446 9.37 1.674 23.616 1.674 13.561-.076 19.731-.456 35.806-2.435 49.137-6.011 73.668-5.327 109.321 3.272 32.53 7.762 47.309 14.687 92.18 43.07 15.16 9.512 37.405 21.155 47.995 24.96 27.349 9.968 66.202 14.077 108.178 11.414Z"/></g><g filter="url(#d)" opacity=".3"><path fill="#EFF8FF" d="M684.055 808.658c21.038-1.315 43.332-4.722 56.959-8.666 47.635-13.805 68.494-38.187 70.407-82.35.478-9.98-.299-20.857-2.75-38.307-2.928-21.275-3.765-33.227-3.406-51.395.179-12.968.538-17.51 1.554-23.247 1.673-9.502 4.662-18.107 9.383-27.191 7.113-13.805 14.524-23.068 36.638-45.717 17.572-18.048 25.222-26.653 31.02-34.96 10.997-15.777 17.034-31.733 17.034-45.179 0-17.331-9.623-31.614-31.259-46.435-8.129-5.617-18.05-11.055-34.068-18.884-33.769-16.375-44.348-21.813-51.102-26.235-13.687-9.024-16.974-13.088-28.509-35.677-9.085-17.63-13.747-24.921-19.723-30.538-7.352-6.992-15.959-10.219-29.167-10.877-12.91-.657-21.935 1.434-47.994 10.817-22.473 8.127-32.872 10.398-44.348 9.681-10.22-.597-19.186-3.167-51.102-14.402-52.596-18.586-71.781-23.606-89.652-23.606-14.762 0-22.353 3.646-27.374 13.028-4.183 7.889-4.96 16.912-3.167 37.47 2.331 26.893 1.434 35.14-5.081 44.642-5.618 8.306-16.615 17.151-34.306 27.669-28.032 16.673-40.045 29.94-40.045 44.163.06 7.47 2.211 14.522 10.639 34.124 9.682 22.589 12.431 34.243 10.878 45.597-1.076 8.008-8.189 31.554-15.361 50.917-11.535 31.135-24.804 57.55-38.012 75.777-14.405 19.84-16.676 24.681-18.469 40.159-1.135 9.741.837 17.51 8.547 33.167 9.802 20.02 18.947 28.506 34.606 32.092 4.961 1.135 7.351 1.315 18.528 1.315 10.639-.06 15.48-.359 28.091-1.913 38.55-4.721 57.796-4.183 85.767 2.57 25.521 6.096 37.116 11.534 72.319 33.825 11.894 7.47 29.347 16.613 37.654 19.601 21.457 7.829 51.939 11.056 84.871 8.965Z"/></g><g filter="url(#e)" opacity=".3"><path fill="#EFF8FF" d="M668.053 748.308c16.077-1.017 33.114-3.651 43.527-6.701 36.402-10.676 52.342-29.531 53.804-63.684.365-7.718-.229-16.13-2.101-29.624-2.238-16.453-2.878-25.696-2.604-39.745.137-10.029.411-13.541 1.188-17.978 1.279-7.348 3.562-14.003 7.17-21.028 5.436-10.676 11.099-17.839 27.998-35.355 13.428-13.957 19.275-20.612 23.705-27.035 8.404-12.201 13.017-24.541 13.017-34.939 0-13.402-7.354-24.448-23.887-35.909-6.212-4.344-13.794-8.55-26.034-14.604-25.806-12.663-33.89-16.869-39.051-20.289-10.459-6.978-12.971-10.121-21.786-27.59-6.943-13.634-10.505-19.272-15.073-23.616-5.618-5.407-12.195-7.903-22.288-8.411-9.866-.509-16.763 1.109-36.676 8.365-17.173 6.285-25.121 8.041-33.89 7.487-7.81-.463-14.661-2.45-39.051-11.138-40.192-14.373-54.854-18.255-68.51-18.255-11.281 0-17.082 2.819-20.919 10.075-3.197 6.1-3.79 13.079-2.42 28.977 1.781 20.796 1.096 27.174-3.882 34.522-4.294 6.424-12.698 13.264-26.217 21.398-21.421 12.894-30.601 23.154-30.601 34.153.045 5.777 1.69 11.23 8.13 26.389 7.399 17.469 9.5 26.481 8.312 35.262-.822 6.193-6.257 24.401-11.738 39.375-8.815 24.078-18.954 44.505-29.048 58.601-11.008 15.343-12.743 19.087-14.113 31.057-.868 7.533.639 13.541 6.531 25.649 7.49 15.482 14.478 22.045 26.445 24.817 3.791.879 5.618 1.017 14.159 1.017 8.13-.046 11.829-.277 21.466-1.479 29.46-3.651 44.166-3.235 65.542 1.988 19.502 4.714 28.363 8.919 55.265 26.157 9.089 5.777 22.425 12.848 28.774 15.159 16.397 6.054 39.69 8.55 64.856 6.932Z"/></g><g filter="url(#f)" opacity=".3"><path fill="#EFF8FF" d="M659.648 688.959c11.492-.718 23.67-2.581 31.114-4.737 26.022-7.546 37.417-20.875 38.461-45.018.262-5.456-.163-11.402-1.501-20.941-1.6-11.63-2.057-18.164-1.861-28.096.097-7.089.293-9.572.848-12.708.915-5.195 2.547-9.899 5.126-14.865 3.886-7.546 7.934-12.61 20.014-24.992 9.599-9.866 13.779-14.57 16.946-19.111 6.007-8.625 9.305-17.348 9.305-24.698 0-9.474-5.257-17.282-17.076-25.384-4.44-3.071-9.86-6.044-18.61-10.324-18.447-8.951-24.226-11.924-27.915-14.342-7.477-4.933-9.273-7.154-15.574-19.503-4.963-9.638-7.51-13.623-10.775-16.694-4.015-3.823-8.717-5.587-15.932-5.946-7.053-.359-11.983.784-26.218 5.913-12.276 4.443-17.957 5.685-24.226 5.293-5.583-.327-10.48-1.732-27.915-7.874-28.732-10.16-39.212-12.904-48.974-12.904-8.065 0-12.211 1.993-14.954 7.122-2.285 4.312-2.71 9.245-1.73 20.483 1.273 14.702.784 19.21-2.775 24.404-3.069 4.541-9.077 9.376-18.741 15.126-15.313 9.115-21.875 16.368-21.875 24.143.033 4.084 1.208 7.939 5.811 18.654 5.29 12.349 6.792 18.72 5.943 24.927-.588 4.377-4.473 17.249-8.391 27.834-6.302 17.021-13.55 31.461-20.765 41.425-7.869 10.846-9.109 13.492-10.089 21.954-.62 5.325.457 9.572 4.669 18.131 5.354 10.944 10.35 15.583 18.904 17.543 2.71.621 4.016.719 10.121.719 5.812-.033 8.456-.196 15.345-1.045 21.059-2.581 31.572-2.287 46.852 1.405 13.942 3.332 20.276 6.305 39.506 18.49 6.497 4.084 16.031 9.082 20.569 10.716 11.721 4.28 28.373 6.044 46.363 4.9Z"/></g><g filter="url(#g)" opacity=".3"><path fill="#EFF8FF" d="M649.356 649.312c8.353-.524 17.204-1.881 22.614-3.452 18.912-5.499 27.193-15.211 27.952-32.803.19-3.975-.118-8.308-1.091-15.259-1.163-8.474-1.495-13.235-1.353-20.472.071-5.165.214-6.975.617-9.26.665-3.785 1.851-7.213 3.726-10.831 2.823-5.499 5.766-9.189 14.545-18.211 6.977-7.189 10.014-10.617 12.316-13.925 4.366-6.285 6.762-12.641 6.762-17.997 0-6.903-3.82-12.593-12.41-18.496-3.227-2.238-7.166-4.404-13.525-7.523-13.407-6.522-17.607-8.688-20.288-10.45-5.434-3.594-6.739-5.213-11.319-14.211-3.607-7.023-5.458-9.927-7.831-12.165-2.918-2.785-6.335-4.07-11.579-4.332-5.126-.262-8.709.571-19.054 4.309-8.922 3.237-13.051 4.142-17.607 3.856-4.058-.238-7.617-1.262-20.288-5.737-20.882-7.403-28.499-9.403-35.594-9.403-5.861 0-8.874 1.452-10.867 5.19-1.661 3.142-1.97 6.736-1.258 14.925.925 10.712.569 13.997-2.017 17.782-2.23 3.309-6.597 6.832-13.62 11.022-11.129 6.642-15.899 11.926-15.899 17.592.024 2.975.878 5.784 4.224 13.592 3.844 8.998 4.936 13.64 4.319 18.163-.427 3.19-3.251 12.569-6.099 20.282-4.579 12.402-9.847 22.924-15.091 30.184-5.719 7.904-6.62 9.832-7.332 15.997-.451 3.88.332 6.975 3.393 13.212 3.891 7.975 7.522 11.355 13.739 12.783 1.969.452 2.919.524 7.356.524 4.224-.024 6.146-.143 11.152-.762 15.305-1.881 22.946-1.666 34.051 1.024 10.132 2.428 14.736 4.594 28.712 13.473 4.722 2.976 11.651 6.618 14.949 7.808 8.519 3.119 20.621 4.404 33.695 3.571Z"/></g><defs><filter id="a" width="1048.59" height="971.602" x="89.9512" y="43.6113" color-interpolation-filters="sRGB" filterUnits="userSpaceOnUse"><feFlood flood-opacity="0" result="BackgroundImageFix"/><feBlend in="SourceGraphic" in2="BackgroundImageFix" result="shape"/><feColorMatrix in="SourceAlpha" result="hardAlpha" values="0 0 0 0 0 0 0 0 0 0 0 0 0 0 0 0 0 0 127 0"/><feOffset dx="5" dy="5"/><feGaussianBlur stdDeviation="2.5"/><feComposite in2="hardAlpha" k2="-1" k3="1" operator="arithmetic"/><feColorMatrix values="0 0 0 0 0.301597 0 0 0 0 0.591784 0 0 0 0 0.841667 0 0 0 0.5 0"/><feBlend in2="shape" result="effect1_innerShadow_313_148"/><feColorMatrix in="SourceAlpha" result="hardAlpha" values="0 0 0 0 0 0 0 0 0 0 0 0 0 0 0 0 0 0 127 0"/><feOffset dx="-5" dy="-5"/><feGaussianBlur stdDeviation="2.5"/><feComposite in2="hardAlpha" k2="-1" k3="1" operator="arithmetic"/><feColorMatrix values="0 0 0 0 0.301961 0 0 0 0 0.592157 0 0 0 0 0.843137 0 0 0 0.5 0"/><feBlend in2="effect1_innerShadow_313_148" result="effect2_innerShadow_313_148"/></filter><filter id="b" width="902.744" height="836.661" x="157.182" y="111.905" color-interpolation-filters="sRGB" filterUnits="userSpaceOnUse"><feFlood flood-opacity="0" result="BackgroundImageFix"/><feBlend in="SourceGraphic" in2="BackgroundImageFix" result="shape"/><feColorMatrix in="SourceAlpha" result="hardAlpha" values="0 0 0 0 0 0 0 0 0 0 0 0 0 0 0 0 0 0 127 0"/><feOffset dx="5" dy="5"/><feGaussianBlur stdDeviation="2.5"/><feComposite in2="hardAlpha" k2="-1" k3="1" operator="arithmetic"/><feColorMatrix values="0 0 0 0 0.301597 0 0 0 0 0.591784 0 0 0 0 0.841667 0 0 0 0.5 0"/><feBlend in2="shape" result="effect1_innerShadow_313_148"/><feColorMatrix in="SourceAlpha" result="hardAlpha" values="0 0 0 0 0 0 0 0 0 0 0 0 0 0 0 0 0 0 127 0"/><feOffset dx="-5" dy="-5"/><feGaussianBlur stdDeviation="2.5"/><feComposite in2="hardAlpha" k2="-1" k3="1" operator="arithmetic"/><feColorMatrix values="0 0 0 0 0.301961 0 0 0 0 0.592157 0 0 0 0 0.843137 0 0 0 0.5 0"/><feBlend in2="effect1_innerShadow_313_148" result="effect2_innerShadow_313_148"/></filter><filter id="c" width="758.866" height="702.426" x="225.033" y="177.004" color-interpolation-filters="sRGB" filterUnits="userSpaceOnUse"><feFlood flood-opacity="0" result="BackgroundImageFix"/><feBlend in="SourceGraphic" in2="BackgroundImageFix" result="shape"/><feColorMatrix in="SourceAlpha" result="hardAlpha" values="0 0 0 0 0 0 0 0 0 0 0 0 0 0 0 0 0 0 127 0"/><feOffset dx="5" dy="5"/><feGaussianBlur stdDeviation="2.5"/><feComposite in2="hardAlpha" k2="-1" k3="1" operator="arithmetic"/><feColorMatrix values="0 0 0 0 0.301597 0 0 0 0 0.591784 0 0 0 0 0.841667 0 0 0 0.5 0"/><feBlend in2="shape" result="effect1_innerShadow_313_148"/><feColorMatrix in="SourceAlpha" result="hardAlpha" values="0 0 0 0 0 0 0 0 0 0 0 0 0 0 0 0 0 0 127 0"/><feOffset dx="-5" dy="-5"/><feGaussianBlur stdDeviation="2.5"/><feComposite in2="hardAlpha" k2="-1" k3="1" operator="arithmetic"/><feColorMatrix values="0 0 0 0 0.301961 0 0 0 0 0.592157 0 0 0 0 0.843137 0 0 0 0.5 0"/><feBlend in2="effect1_innerShadow_313_148" result="effect2_innerShadow_313_148"/></filter><filter id="d" width="597.519" height="553.79" x="308.375" y="260.49" color-interpolation-filters="sRGB" filterUnits="userSpaceOnUse"><feFlood flood-opacity="0" result="BackgroundImageFix"/><feBlend in="SourceGraphic" in2="BackgroundImageFix" result="shape"/><feColorMatrix in="SourceAlpha" result="hardAlpha" values="0 0 0 0 0 0 0 0 0 0 0 0 0 0 0 0 0 0 127 0"/><feOffset dx="5" dy="5"/><feGaussianBlur stdDeviation="2.5"/><feComposite in2="hardAlpha" k2="-1" k3="1" operator="arithmetic"/><feColorMatrix values="0 0 0 0 0.301597 0 0 0 0 0.591784 0 0 0 0 0.841667 0 0 0 0.5 0"/><feBlend in2="shape" result="effect1_innerShadow_313_148"/><feColorMatrix in="SourceAlpha" result="hardAlpha" values="0 0 0 0 0 0 0 0 0 0 0 0 0 0 0 0 0 0 127 0"/><feOffset dx="-5" dy="-5"/><feGaussianBlur stdDeviation="2.5"/><feComposite in2="hardAlpha" k2="-1" k3="1" operator="arithmetic"/><feColorMatrix values="0 0 0 0 0.301961 0 0 0 0 0.592157 0 0 0 0 0.843137 0 0 0 0.5 0"/><feBlend in2="effect1_innerShadow_313_148" result="effect2_innerShadow_313_148"/></filter><filter id="e" width="458.969" height="430.531" x="379.788" y="323.259" color-interpolation-filters="sRGB" filterUnits="userSpaceOnUse"><feFlood flood-opacity="0" result="BackgroundImageFix"/><feBlend in="SourceGraphic" in2="BackgroundImageFix" result="shape"/><feColorMatrix in="SourceAlpha" result="hardAlpha" values="0 0 0 0 0 0 0 0 0 0 0 0 0 0 0 0 0 0 127 0"/><feOffset dx="5" dy="5"/><feGaussianBlur stdDeviation="2.5"/><feComposite in2="hardAlpha" k2="-1" k3="1" operator="arithmetic"/><feColorMatrix values="0 0 0 0 0.301597 0 0 0 0 0.591784 0 0 0 0 0.841667 0 0 0 0.5 0"/><feBlend in2="shape" result="effect1_innerShadow_313_148"/><feColorMatrix in="SourceAlpha" result="hardAlpha" values="0 0 0 0 0 0 0 0 0 0 0 0 0 0 0 0 0 0 127 0"/><feOffset dx="-5" dy="-5"/><feGaussianBlur stdDeviation="2.5"/><feComposite in2="hardAlpha" k2="-1" k3="1" operator="arithmetic"/><feColorMatrix values="0 0 0 0 0.301961 0 0 0 0 0.592157 0 0 0 0 0.843137 0 0 0 0.5 0"/><feBlend in2="effect1_innerShadow_313_148" result="effect2_innerShadow_313_148"/></filter><filter id="f" width="330.942" height="307.272" x="452.157" y="387.028" color-interpolation-filters="sRGB" filterUnits="userSpaceOnUse"><feFlood flood-opacity="0" result="BackgroundImageFix"/><feBlend in="SourceGraphic" in2="BackgroundImageFix" result="shape"/><feColorMatrix in="SourceAlpha" result="hardAlpha" values="0 0 0 0 0 0 0 0 0 0 0 0 0 0 0 0 0 0 127 0"/><feOffset dx="5" dy="5"/><feGaussianBlur stdDeviation="2.5"/><feComposite in2="hardAlpha" k2="-1" k3="1" operator="arithmetic"/><feColorMatrix values="0 0 0 0 0.301597 0 0 0 0 0.591784 0 0 0 0 0.841667 0 0 0 0.5 0"/><feBlend in2="shape" result="effect1_innerShadow_313_148"/><feColorMatrix in="SourceAlpha" result="hardAlpha" values="0 0 0 0 0 0 0 0 0 0 0 0 0 0 0 0 0 0 127 0"/><feOffset dx="-5" dy="-5"/><feGaussianBlur stdDeviation="2.5"/><feComposite in2="hardAlpha" k2="-1" k3="1" operator="arithmetic"/><feColorMatrix values="0 0 0 0 0.301961 0 0 0 0 0.592157 0 0 0 0 0.843137 0 0 0 0.5 0"/><feBlend in2="effect1_innerShadow_313_148" result="effect2_innerShadow_313_148"/></filter><filter id="g" width="243.254" height="226.609" x="497.19" y="427.95" color-interpolation-filters="sRGB" filterUnits="userSpaceOnUse"><feFlood flood-opacity="0" result="BackgroundImageFix"/><feBlend in="SourceGraphic" in2="BackgroundImageFix" result="shape"/><feColorMatrix in="SourceAlpha" result="hardAlpha" values="0 0 0 0 0 0 0 0 0 0 0 0 0 0 0 0 0 0 127 0"/><feOffset dx="5" dy="5"/><feGaussianBlur stdDeviation="2.5"/><feComposite in2="hardAlpha" k2="-1" k3="1" operator="arithmetic"/><feColorMatrix values="0 0 0 0 0.301597 0 0 0 0 0.591784 0 0 0 0 0.841667 0 0 0 0.5 0"/><feBlend in2="shape" result="effect1_innerShadow_313_148"/><feColorMatrix in="SourceAlpha" result="hardAlpha" values="0 0 0 0 0 0 0 0 0 0 0 0 0 0 0 0 0 0 127 0"/><feOffset dx="-5" dy="-5"/><feGaussianBlur stdDeviation="2.5"/><feComposite in2="hardAlpha" k2="-1" k3="1" operator="arithmetic"/><feColorMatrix values="0 0 0 0 0.301961 0 0 0 0 0.592157 0 0 0 0 0.843137 0 0 0 0.5 0"/><feBlend in2="effect1_innerShadow_313_148" result="effect2_innerShadow_313_148"/></filter></defs></svg>