<svg width="33" height="31" viewBox="0 0 33 31" fill="none" xmlns="http://www.w3.org/2000/svg">
<path d="M29.8403 13.1909H28.7439V13.1385H16.4939V18.194H24.1862C23.064 21.137 20.0485 23.2496 16.4939 23.2496C11.9839 23.2496 8.32726 19.8541 8.32726 15.6662C8.32726 11.4783 11.9839 8.0829 16.4939 8.0829C18.5757 8.0829 20.4697 8.81216 21.9118 10.0034L25.7617 6.42847C23.3308 4.32473 20.0791 3.02734 16.4939 3.02734C8.97719 3.02734 2.88281 8.68641 2.88281 15.6662C2.88281 22.6461 8.97719 28.3051 16.4939 28.3051C24.0107 28.3051 30.105 22.6461 30.105 15.6662C30.105 14.8188 30.0111 13.9916 29.8403 13.1909Z" fill="#FFC107"/>
<path d="M4.45312 9.78346L8.92505 12.8288C10.1351 10.047 13.0656 8.0829 16.4949 8.0829C18.5767 8.0829 20.4707 8.81216 21.9128 10.0034L25.7627 6.42847C23.3317 4.32473 20.08 3.02734 16.4949 3.02734C11.2668 3.02734 6.73299 5.76809 4.45312 9.78346Z" fill="#FF3D00"/>
<path d="M16.5001 28.3075C20.0159 28.3075 23.2104 27.0581 25.6257 25.0264L21.413 21.7163C20.0006 22.7137 18.2746 23.2532 16.5001 23.2519C12.9599 23.2519 9.95384 21.1557 8.82139 18.2305L4.38281 21.406C6.63545 25.4991 11.2101 28.3075 16.5001 28.3075Z" fill="#4CAF50"/>
<path d="M29.8464 13.1931H28.75V13.1406H16.5V18.1962H24.1923C23.6555 19.5968 22.6885 20.8208 21.4109 21.7167L21.4129 21.7155L25.6256 25.0256C25.3275 25.2771 30.1111 21.9878 30.1111 15.6684C30.1111 14.821 30.0172 13.9938 29.8464 13.1931Z" fill="#1976D2"/>
</svg>
