<svg width="91" height="21" viewBox="0 0 91 21" fill="none" xmlns="http://www.w3.org/2000/svg">
<path d="M10.8965 4.57812C10.1491 4.40495 9.54297 4.31836 9.07812 4.31836C8.54948 4.31836 8.13477 4.49154 7.83398 4.83789C7.54232 5.18424 7.39648 5.67643 7.39648 6.31445V6.80664H9.88477V10.1426H7.39648V20H2.46094V10.1426H0.191406V6.80664H2.46094V6.56055C2.46094 5.58529 2.64779 4.66471 3.02148 3.79883C3.4043 2.92383 4.03776 2.20378 4.92188 1.63867C5.80599 1.07357 6.97266 0.791016 8.42188 0.791016C9.24219 0.791016 10.0671 0.877604 10.8965 1.05078V4.57812ZM27.1387 19.3027C26.4186 19.5853 25.7533 19.8132 25.1426 19.9863C24.5319 20.1595 23.7982 20.2461 22.9414 20.2461C22.1302 20.2461 21.5651 20.1048 21.2461 19.8223C20.9271 19.5306 20.6992 19.1797 20.5625 18.7695C20.0339 19.1979 19.446 19.5534 18.7988 19.8359C18.1517 20.1094 17.304 20.2461 16.2559 20.2461C15.2441 20.2461 14.4238 20.0729 13.7949 19.7266C13.1751 19.3711 12.7376 18.929 12.4824 18.4004C12.2363 17.8626 12.1133 17.3112 12.1133 16.7461C12.1133 15.8893 12.3275 15.1829 12.7559 14.627C13.1934 14.0618 13.7767 13.6016 14.5059 13.2461C15.235 12.8906 16.2012 12.5215 17.4043 12.1387C18.0879 11.9199 18.6029 11.7559 18.9492 11.6465C19.3047 11.528 19.569 11.4368 19.7422 11.373C19.9154 11.3092 20.0977 11.2272 20.2891 11.127C20.2891 10.4525 20.1523 9.92383 19.8789 9.54102C19.6055 9.1582 19.013 8.9668 18.1016 8.9668C17.026 8.9668 16.028 9.20378 15.1074 9.67773C14.1868 10.1517 13.3438 10.7624 12.5781 11.5098V7.73633C13.1888 7.29883 13.8496 6.94336 14.5605 6.66992C15.2715 6.38737 16.0143 6.17773 16.7891 6.04102C17.5638 5.9043 18.3477 5.83594 19.1406 5.83594C21.1549 5.83594 22.668 6.22786 23.6797 7.01172C24.7005 7.78646 25.2109 8.85742 25.2109 10.2246V15.5977C25.2109 16.1081 25.2565 16.4909 25.3477 16.7461C25.4479 16.9922 25.6257 17.1152 25.8809 17.1152C26.1908 17.1152 26.61 16.9831 27.1387 16.7188V19.3027ZM20.2891 16.6367V13.3418C19.1224 13.8158 18.2702 14.2441 17.7324 14.627C17.1947 15.0007 16.9258 15.5111 16.9258 16.1582C16.9258 16.623 17.0579 16.9785 17.3223 17.2246C17.5957 17.4707 17.9102 17.5938 18.2656 17.5938C18.6029 17.5938 18.9355 17.5026 19.2637 17.3203C19.6009 17.1289 19.9427 16.901 20.2891 16.6367ZM45.6504 20H39.4023L34.0566 13.3965V20H29.0801V1.05078H34.0566V12.166L38.9375 6.08203H44.8438L39.4023 12.5762L45.6504 20ZM58.2148 19.1934C57.7044 19.4395 56.998 19.6764 56.0957 19.9043C55.2025 20.1322 54.3457 20.2461 53.5254 20.2461C49.9798 20.2461 48.207 18.5143 48.207 15.0508V9.5H45.9785V8.63867L52.582 1.91211H53.1426V6.08203H57.8457V9.5H53.1426V13.957C53.1426 14.4766 53.1745 14.8958 53.2383 15.2148C53.3021 15.5339 53.4798 15.8027 53.7715 16.0215C54.0723 16.2311 54.5234 16.3359 55.125 16.3359C55.9089 16.3359 56.9388 16.0078 58.2148 15.3516V19.1934ZM75.7559 13.0273C75.7559 14.4128 75.4551 15.6478 74.8535 16.7324C74.252 17.8171 73.3496 18.6738 72.1465 19.3027C70.9525 19.9316 69.4941 20.2461 67.7715 20.2461C66.0488 20.2461 64.5859 19.9316 63.3828 19.3027C62.1888 18.6738 61.291 17.8171 60.6895 16.7324C60.097 15.6478 59.8008 14.4128 59.8008 13.0273C59.8008 11.9792 59.9648 11.0267 60.293 10.1699C60.6302 9.31315 61.1361 8.55664 61.8105 7.90039C62.4941 7.23503 63.3327 6.72461 64.3262 6.36914C65.3197 6.01367 66.4681 5.83594 67.7715 5.83594C69.084 5.83594 70.2415 6.01823 71.2441 6.38281C72.2559 6.73828 73.0898 7.23958 73.7461 7.88672C74.4115 8.53385 74.9128 9.29036 75.25 10.1562C75.5872 11.0221 75.7559 11.9792 75.7559 13.0273ZM70.5742 13.0273C70.5742 11.9245 70.3327 11.0632 69.8496 10.4434C69.3757 9.81445 68.6829 9.5 67.7715 9.5C66.8691 9.5 66.1764 9.81445 65.6934 10.4434C65.2194 11.0632 64.9824 11.9245 64.9824 13.0273C64.9824 14.1211 65.224 14.987 65.707 15.625C66.1901 16.263 66.8783 16.582 67.7715 16.582C68.6829 16.582 69.3757 16.2676 69.8496 15.6387C70.3327 15.0007 70.5742 14.1302 70.5742 13.0273ZM90.5625 6.83398L88.7441 11.7695C87.9967 11.0586 87.2402 10.7031 86.4746 10.7031C85.7819 10.7031 85.1803 10.9401 84.6699 11.4141C84.1686 11.8789 83.6855 12.7448 83.2207 14.0117V20H78.2988V6.08203H83.2207V9.44531C83.5306 8.61589 84.0775 7.80924 84.8613 7.02539C85.6452 6.23242 86.5658 5.83594 87.623 5.83594C88.179 5.83594 88.6621 5.91797 89.0723 6.08203C89.4915 6.24609 89.9883 6.49674 90.5625 6.83398Z" fill="#0E171F"/>
</svg>
