<svg width="31" height="60" viewBox="0 0 31 60" fill="none" xmlns="http://www.w3.org/2000/svg">
<path d="M30 33H1.3859e-06V41H30V33Z" fill="#f9fafb"/>
<path d="M3.25391 55C3.25391 57.7614 5.49248 60 8.25391 60C11.0153 60 13.2539 57.7614 13.2539 55C13.2539 52.2386 11.0153 50 8.25391 50C5.49248 50 3.25391 52.2386 3.25391 55Z" fill="#f9fafb"/>
<circle r="5" transform="matrix(-1 0 0 1 7.25391 6)" fill="#f9fafb"/>
<path d="M20.2539 22.6958C20.2539 25.4572 22.4925 27.6958 25.2539 27.6958C28.0153 27.6958 30.2539 25.4572 30.2539 22.6958C30.2539 19.9344 28.0153 17.6958 25.2539 17.6958C22.4925 17.6958 20.2539 19.9344 20.2539 22.6958Z" fill="#f9fafb"/>
</svg>
