<svg width="33" height="70" viewBox="0 0 33 70" fill="none" xmlns="http://www.w3.org/2000/svg">
<path d="M31 42H1V47H31V42Z" fill="#0E171F"/>
<path d="M6 65C6 67.7614 8.23858 70 11 70C13.7614 70 16 67.7614 16 65C16 62.2386 13.7614 60 11 60C8.23858 60 6 62.2386 6 65Z" fill="#0E171F"/>
<path d="M0 5C0 7.76142 2.23858 10 5 10C7.76142 10 10 7.76142 10 5C10 2.23858 7.76142 0 5 0C2.23858 0 0 2.23858 0 5Z" fill="#0E171F"/>
<path d="M23 29C23 31.7614 25.2386 34 28 34C30.7614 34 33 31.7614 33 29C33 26.2386 30.7614 24 28 24C25.2386 24 23 26.2386 23 29Z" fill="#0E171F"/>
</svg>
